<svg version="1.1" id="Layer_1" xmlns="http://www.w3.org/2000/svg" xmlns:xlink="http://www.w3.org/1999/xlink" x="0px" y="0px"
	 width="100%" viewBox="0 0 252 252" enable-background="new 0 0 252 252" xml:space="preserve">
<path fill="#08080A" opacity="1.000000" stroke="none" 
	d="
M136.000000,253.000000 
	C90.666672,253.000000 45.833340,253.000000 1.000006,253.000000 
	C1.000004,169.000015 1.000004,85.000015 1.000002,1.000017 
	C84.999992,1.000012 168.999985,1.000012 252.999969,1.000006 
	C252.999985,84.999985 252.999985,168.999969 253.000000,252.999969 
	C214.166672,253.000000 175.333328,253.000000 136.000000,253.000000 
M121.244514,164.857803 
	C121.244514,164.857803 121.387939,164.869919 121.244621,164.260818 
	C120.970909,163.712479 120.697189,163.164139 120.342636,162.860016 
	C120.342636,162.860016 120.594276,162.913452 120.629059,161.971527 
	C120.585762,145.655304 120.542473,129.339066 120.208710,113.195778 
	C120.208710,113.195778 120.397751,113.476021 120.764816,113.380241 
	C120.764816,113.380241 120.961517,113.055725 120.756355,113.191124 
	C120.756355,113.191124 120.879036,113.404129 121.160324,113.620865 
	C121.477699,113.475952 121.795074,113.331039 123.019653,113.199051 
	C126.677139,113.122711 130.334625,113.046371 134.862198,113.213715 
	C137.561920,113.124733 140.261658,113.035744 143.875687,113.177917 
	C148.606476,113.068588 153.337250,112.959259 158.945206,112.993454 
	C161.329178,112.949913 163.713150,112.906364 167.002426,112.996956 
	C172.625153,113.706772 178.247864,114.416580 184.236038,115.739929 
	C185.578201,118.525230 186.920349,121.310539 188.293549,124.160263 
	C188.293549,115.061378 188.293549,106.044731 188.293549,97.044716 
	C186.736923,100.175537 185.321640,103.022079 183.203339,106.175125 
	C178.820084,106.843010 174.436844,107.510902 169.161926,107.998489 
	C166.443665,108.068794 163.725388,108.139099 160.080658,108.057579 
	C154.032776,108.083511 147.984879,108.109451 141.039307,108.080933 
	C138.344269,108.102310 135.649216,108.123688 132.044220,108.034439 
	C128.361450,108.034599 124.678673,108.034752 120.713875,107.406853 
	C120.540161,106.515480 120.366440,105.624100 120.373390,103.843483 
	C120.362610,87.977463 120.351830,72.111443 120.667099,55.943668 
	C120.561729,55.546883 120.456360,55.150097 120.392700,54.092083 
	C120.347496,53.431759 120.302292,52.771431 120.285126,52.310001 
	C120.285126,52.310001 120.484711,52.287369 121.245308,52.147934 
	C122.513924,52.003132 123.782547,51.858330 125.915649,51.748356 
	C128.220551,51.701447 130.525436,51.654537 133.743469,51.882252 
	C138.111908,51.731686 142.480331,51.581120 147.770325,51.669464 
	C150.931961,51.698792 154.094177,51.699306 157.255112,51.763420 
	C163.938065,51.898968 166.642395,54.219101 167.751022,60.650799 
	C167.892792,61.473186 168.220490,62.263519 168.462051,63.068703 
	C168.745605,63.027580 169.029175,62.986458 169.312729,62.945335 
	C169.312729,56.485401 169.312729,50.025471 169.312729,43.884117 
	C161.613068,44.753586 154.240128,45.586159 145.957855,46.304817 
	C141.268692,46.289154 136.579544,46.273491 131.081100,46.211559 
	C128.384613,46.520554 125.688133,46.829552 122.306343,47.004841 
	C121.408073,46.841648 120.509811,46.678455 118.898933,46.189125 
	C117.600906,46.253597 116.302879,46.318069 114.462456,46.228065 
	C114.279282,46.270313 114.096100,46.312565 113.013664,46.174057 
	C108.280701,46.174057 103.547729,46.174057 98.814766,46.174057 
	C99.874413,47.862518 101.244049,48.530041 102.599274,49.225655 
	C106.636429,51.297859 108.891022,54.473274 108.889648,59.144615 
	C108.879883,92.396622 108.919220,125.648674 108.870285,158.900604 
	C108.862946,163.885452 107.016205,167.973846 101.360283,170.167740 
	C99.119705,171.013336 96.879120,171.858948 94.638542,172.704544 
	C94.687187,173.134155 94.735832,173.563766 94.784477,173.993378 
	C97.520798,173.663712 100.257118,173.334061 103.889984,173.114258 
	C106.592972,173.053192 109.295967,172.992142 112.653725,173.083344 
	C113.097511,173.140106 113.541298,173.196869 114.496086,173.615891 
	C115.686813,173.507843 116.877548,173.399811 118.197128,173.079575 
	C118.197128,173.079575 117.992676,172.938751 118.814682,173.098419 
	C120.206802,173.063583 121.598923,173.028732 123.885231,173.172272 
	C127.256721,173.172272 130.628220,173.172272 133.698059,173.172272 
	C129.548813,170.630768 125.772591,168.317749 121.999992,166.000000 
	C121.999992,166.000000 121.995598,166.003189 121.943962,165.482651 
	C121.722023,165.227722 121.500084,164.972794 121.244514,164.857803 
M131.788330,196.815674 
	C131.788330,196.815674 131.718628,196.807938 131.076584,197.006042 
	C129.385284,198.123352 127.693977,199.240662 125.324036,200.507721 
	C122.873337,201.390335 120.422638,202.272964 117.237991,203.133728 
	C114.856743,204.075775 112.475494,205.017822 109.711334,205.272552 
	C103.838783,203.628174 97.966225,201.983795 91.682594,199.881592 
	C87.428909,196.006012 83.175232,192.130447 78.712212,187.543259 
	C77.923218,186.000641 77.134216,184.458023 76.252808,182.170303 
	C76.252808,172.260162 76.252808,162.350037 76.252808,153.682922 
	C75.195244,155.980759 73.584114,159.481354 71.499313,163.599991 
	C69.684837,170.119827 69.551247,176.599655 71.949532,183.772141 
	C73.255096,186.607651 74.560661,189.443161 75.866547,192.929916 
	C76.377754,193.607895 76.888969,194.285873 77.911613,195.352951 
	C82.278603,198.878311 86.645592,202.403656 91.604401,206.321991 
	C96.748802,207.554230 101.893211,208.786453 107.613960,210.585068 
	C112.033684,210.308777 116.453400,210.032486 121.605331,209.825943 
	C123.426765,209.329971 125.248199,208.834000 127.822433,208.276108 
	C129.825394,207.496933 131.828369,206.717773 134.489853,205.728333 
	C136.382599,204.516571 138.275345,203.304810 140.738510,201.849182 
	C141.481567,201.143036 142.224609,200.436874 143.470139,199.468903 
	C144.208801,198.614929 144.947464,197.760956 146.103180,196.179138 
	C146.099472,195.626389 146.095764,195.073624 146.164093,194.616058 
	C146.164093,194.616058 146.282715,194.602676 146.940643,194.605423 
	C147.712540,193.843338 148.484436,193.081238 149.825821,191.918579 
	C157.725571,177.405899 157.447067,162.993134 149.074142,148.098236 
	C148.624649,147.410172 148.175140,146.722092 147.465820,145.440445 
	C144.335312,142.519440 141.204788,139.598450 137.930313,136.080322 
	C136.974182,135.042953 136.018051,134.005569 134.715057,132.393005 
	C131.905670,130.262131 129.096283,128.131271 125.236542,125.203712 
	C125.236542,129.628876 125.496361,132.603439 125.176651,135.514374 
	C124.676743,140.065887 126.214821,143.250168 130.755539,145.708969 
	C132.466187,147.489395 134.176834,149.269836 136.093201,151.698776 
	C137.520325,153.105301 138.947449,154.511810 140.529114,156.745850 
	C140.575500,157.973755 140.457794,159.234833 140.698059,160.423538 
	C141.525574,164.517776 142.478149,168.586731 143.191895,173.444351 
	C143.177612,174.244339 143.163345,175.044342 142.876221,176.452255 
	C141.891068,179.929642 140.905914,183.407013 139.392838,187.286240 
	C138.215454,189.167419 137.038055,191.048615 135.329529,193.192917 
	C134.526062,194.061142 133.722595,194.929382 132.418091,196.006516 
	C132.218079,196.297409 132.018066,196.588303 131.788330,196.815674 
M135.274017,65.797630 
	C134.898392,65.840843 134.522781,65.884064 133.391174,65.650597 
	C130.863586,65.463203 128.335999,65.275810 125.985954,65.101578 
	C123.514137,71.763596 128.834320,72.653320 132.397964,75.553932 
	C134.378571,79.546585 136.359177,83.539238 138.765366,88.389832 
	C138.765366,81.028862 138.765366,74.501442 138.888046,67.364159 
	C138.597168,66.874161 138.306290,66.384163 137.659134,65.774048 
	C137.659134,65.774048 137.289658,65.843613 136.936127,65.686829 
	C136.569382,65.754135 136.202652,65.821442 135.274017,65.797630 
M89.274239,111.478447 
	C90.806618,113.001144 92.338997,114.523842 94.212975,116.628181 
	C97.234619,119.013527 100.256264,121.398880 103.754601,124.160545 
	C103.890472,115.502197 105.711021,107.382240 97.653023,101.907341 
	C96.426910,101.074265 95.940491,99.152504 95.080696,96.832031 
	C95.076851,92.401291 95.073013,87.970551 95.565948,82.984413 
	C97.162949,80.534370 98.322792,77.569702 100.459335,75.754822 
	C103.669800,73.027702 104.718292,70.171432 103.231529,65.539444 
	C100.345360,67.427010 97.660812,69.182724 94.410995,71.272873 
	C92.917084,73.119766 91.423164,74.966667 89.339981,77.195419 
	C83.071388,88.360840 81.425529,99.570351 89.274239,111.478447 
z"/>
<path fill="#E6BC5A" opacity="1.000000" stroke="none" 
	d="
M113.985085,173.253632 
	C113.541298,173.196869 113.097511,173.140106 112.331497,172.543060 
	C112.008751,132.605850 111.973770,93.208832 112.089394,53.812252 
	C112.096695,51.324677 113.277863,48.840546 113.912918,46.354813 
	C114.096100,46.312565 114.279282,46.270313 114.690834,46.610146 
	C115.274879,51.559608 115.928848,56.126320 115.939140,60.694485 
	C116.023369,98.090279 115.987648,135.486343 115.653564,172.945496 
	C114.874214,173.090317 114.429649,173.171967 113.985085,173.253632 
z"/>
<path fill="#DAAA3B" opacity="1.000000" stroke="none" 
	d="
M113.463287,46.264435 
	C113.277863,48.840546 112.096695,51.324677 112.089394,53.812252 
	C111.973770,93.208832 112.008751,132.605850 112.004105,172.466919 
	C109.295967,172.992142 106.592972,173.053192 103.348999,172.746796 
	C102.558403,171.601593 102.308800,170.823868 102.059189,170.046143 
	C107.016205,167.973846 108.862946,163.885452 108.870285,158.900604 
	C108.919220,125.648674 108.879883,92.396622 108.889648,59.144615 
	C108.891022,54.473274 106.636429,51.297859 102.599274,49.225655 
	C101.244049,48.530041 99.874413,47.862518 98.814766,46.174057 
	C103.547729,46.174057 108.280701,46.174057 113.463287,46.264435 
z"/>
<path fill="#E2C371" opacity="1.000000" stroke="none" 
	d="
M115.988365,172.882324 
	C115.987648,135.486343 116.023369,98.090279 115.939140,60.694485 
	C115.928848,56.126320 115.274879,51.559608 114.962036,46.687386 
	C116.302879,46.318069 117.600906,46.253597 119.097107,46.565628 
	C120.131668,47.669346 120.968071,48.396568 121.810555,49.282135 
	C121.816635,49.440479 121.864052,49.753834 121.579605,49.800049 
	C120.612137,50.027611 119.929123,50.208961 119.246101,50.390312 
	C119.540894,50.659901 119.835686,50.929485 120.188751,51.481007 
	C120.326241,51.937748 120.405479,52.112560 120.484711,52.287369 
	C120.484711,52.287369 120.285126,52.310001 119.945953,52.268696 
	C119.391632,54.426643 118.997444,56.625290 118.990028,58.825241 
	C118.936523,74.688835 118.961349,90.552689 118.961349,107.635841 
	C119.707108,105.877632 119.949921,105.305176 120.192726,104.732727 
	C120.366440,105.624100 120.540161,106.515480 120.851120,107.965897 
	C120.988373,108.524940 120.978104,109.014938 120.707664,109.170731 
	C120.424065,110.709686 120.410904,112.092850 120.397751,113.476021 
	C120.397751,113.476021 120.208710,113.195778 120.023361,113.392448 
	C119.559128,114.342384 119.039818,115.094734 119.036911,115.849060 
	C118.980896,130.415863 118.949707,144.983154 119.047256,159.549423 
	C119.054794,160.674179 120.055305,161.792267 120.594284,162.913452 
	C120.594276,162.913452 120.342636,162.860016 120.329559,163.079224 
	C120.673630,163.822250 121.030785,164.346085 121.387939,164.869919 
	C121.387939,164.869919 121.244514,164.857803 121.164856,165.094742 
	C121.033821,165.539169 120.982445,165.746674 120.608795,165.960220 
	C119.856979,165.978500 119.427429,165.990768 118.956001,165.918030 
	C118.914116,165.833023 118.693634,165.821335 118.693634,165.821335 
	C118.693634,165.821335 119.003235,165.997650 118.997452,166.391724 
	C118.658676,168.836777 118.325676,170.887772 117.992676,172.938751 
	C117.992676,172.938751 118.197128,173.079575 117.793701,173.082291 
	C116.922974,173.017441 116.455666,172.949875 115.988365,172.882324 
z"/>
<path fill="#EACD7C" opacity="1.000000" stroke="none" 
	d="
M95.069168,83.539810 
	C95.073013,87.970551 95.076851,92.401291 95.120651,97.664543 
	C95.419250,103.206314 95.820251,107.915161 95.833733,112.625122 
	C95.836990,113.763710 94.559769,114.905968 93.871368,116.046539 
	C92.338997,114.523842 90.806618,113.001144 89.320297,110.804062 
	C89.575966,108.189240 89.956795,106.249611 89.966003,104.308228 
	C90.009476,95.143608 89.951225,85.978493 89.929253,76.813560 
	C91.423164,74.966667 92.917084,73.119766 94.881088,71.362640 
	C95.257179,75.481544 95.163170,79.510674 95.069168,83.539810 
z"/>
<path fill="#956F17" opacity="1.000000" stroke="none" 
	d="
M149.297546,148.676514 
	C157.447067,162.993134 157.725571,177.405899 149.500046,191.707031 
	C149.215363,177.222488 149.256454,162.949493 149.297546,148.676514 
z"/>
<path fill="#84631F" opacity="1.000000" stroke="none" 
	d="
M146.867188,46.418732 
	C154.240128,45.586159 161.613068,44.753586 169.312729,43.884117 
	C169.312729,50.025471 169.312729,56.485401 169.312729,62.945335 
	C169.029175,62.986458 168.745605,63.027580 168.462051,63.068703 
	C168.220490,62.263519 167.892792,61.473186 167.751022,60.650799 
	C166.642395,54.219101 163.938065,51.898968 157.255112,51.763420 
	C154.094177,51.699306 150.931961,51.698792 147.314056,51.195400 
	C146.860931,49.287132 146.864059,47.852932 146.867188,46.418732 
z"/>
<path fill="#CD9720" opacity="1.000000" stroke="none" 
	d="
M149.185837,148.387375 
	C149.256454,162.949493 149.215363,177.222488 149.215302,191.907303 
	C148.484436,193.081238 147.712540,193.843338 146.418518,194.275558 
	C145.594559,190.911987 145.413971,187.859879 144.956833,184.849762 
	C144.497665,181.826157 143.763000,178.844421 143.149063,175.844330 
	C143.163345,175.044342 143.177612,174.244339 143.541306,173.217621 
	C144.395599,173.299225 144.900482,173.607559 145.525482,173.989258 
	C145.319412,171.501740 144.991455,169.351135 144.992584,167.200684 
	C144.995422,161.820709 144.956726,156.426819 145.349792,151.068954 
	C145.476501,149.341843 146.897003,147.709641 147.725647,146.034027 
	C148.175140,146.722092 148.624649,147.410172 149.185837,148.387375 
z"/>
<path fill="#BC8A1D" opacity="1.000000" stroke="none" 
	d="
M147.595734,145.737244 
	C146.897003,147.709641 145.476501,149.341843 145.349792,151.068954 
	C144.956726,156.426819 144.995422,161.820709 144.992584,167.200684 
	C144.991455,169.351135 145.319412,171.501740 145.525482,173.989258 
	C144.900482,173.607559 144.395599,173.299225 143.636902,172.828094 
	C142.478149,168.586731 141.525574,164.517776 140.698059,160.423538 
	C140.457794,159.234833 140.575500,157.973755 140.586090,156.085754 
	C139.774292,149.616226 138.905518,143.806763 138.053452,137.667542 
	C138.071533,137.117676 138.072906,136.897552 138.074280,136.677444 
	C141.204788,139.598450 144.335312,142.519440 147.595734,145.737244 
z"/>
<path fill="#DAB048" opacity="1.000000" stroke="none" 
	d="
M89.634613,77.004486 
	C89.951225,85.978493 90.009476,95.143608 89.966003,104.308228 
	C89.956795,106.249611 89.575966,108.189240 89.192558,110.498840 
	C81.425529,99.570351 83.071388,88.360840 89.634613,77.004486 
z"/>
<path fill="#EFE2AB" opacity="1.000000" stroke="none" 
	d="
M94.042175,116.337357 
	C94.559769,114.905968 95.836990,113.763710 95.833733,112.625122 
	C95.820251,107.915161 95.419250,103.206314 95.136276,98.115677 
	C95.940491,99.152504 96.426910,101.074265 97.653023,101.907341 
	C105.711021,107.382240 103.890472,115.502197 103.754601,124.160545 
	C100.256264,121.398880 97.234619,119.013527 94.042175,116.337357 
z"/>
<path fill="#78591C" opacity="1.000000" stroke="none" 
	d="
M130.443466,145.077225 
	C126.214821,143.250168 124.676743,140.065887 125.176651,135.514374 
	C125.496361,132.603439 125.236542,129.628876 125.236542,125.203712 
	C129.096283,128.131271 131.905670,130.262131 134.610550,132.743164 
	C133.785629,135.584000 133.129745,138.095871 132.321304,140.557663 
	C131.813812,142.103088 131.077255,143.573273 130.443466,145.077225 
z"/>
<path fill="#EBD993" opacity="1.000000" stroke="none" 
	d="
M71.972992,162.981934 
	C73.584114,159.481354 75.195244,155.980759 76.252808,153.682922 
	C76.252808,162.350037 76.252808,172.260162 76.024475,182.752960 
	C75.819504,186.316635 75.842865,189.297653 75.866226,192.278671 
	C74.560661,189.443161 73.255096,186.607651 72.187637,183.114670 
	C72.605293,177.833145 72.897789,173.209366 72.909134,168.584900 
	C72.913719,166.718018 72.303452,164.849640 71.972992,162.981934 
z"/>
<path fill="#D4A93F" opacity="1.000000" stroke="none" 
	d="
M78.921547,188.254868 
	C83.175232,192.130447 87.428909,196.006012 91.784042,200.430695 
	C91.594528,202.629532 91.303551,204.279266 91.012581,205.929016 
	C86.645592,202.403656 82.278603,198.878311 77.869980,194.961670 
	C78.192757,192.465210 78.557152,190.360031 78.921547,188.254868 
z"/>
<path fill="#E5D69B" opacity="1.000000" stroke="none" 
	d="
M91.308487,206.125504 
	C91.303551,204.279266 91.594528,202.629532 91.989578,200.659607 
	C97.966225,201.983795 103.838783,203.628174 109.579987,205.744995 
	C108.644958,207.484528 107.841286,208.751602 107.037613,210.018692 
	C101.893211,208.786453 96.748802,207.554230 91.308487,206.125504 
z"/>
<path fill="#BC8A1D" opacity="1.000000" stroke="none" 
	d="
M143.012634,176.148285 
	C143.763000,178.844421 144.497665,181.826157 144.956833,184.849762 
	C145.413971,187.859879 145.594559,190.911987 146.089554,194.274185 
	C146.282715,194.602676 146.164093,194.616058 145.997101,194.802307 
	C145.782104,195.628021 145.734116,196.267502 145.686127,196.906982 
	C144.947464,197.760956 144.208801,198.614929 143.018295,199.327438 
	C141.819565,196.644318 140.968338,194.127106 140.365524,191.551727 
	C140.012589,190.043869 140.055756,188.443268 139.920746,186.884399 
	C140.905914,183.407013 141.891068,179.929642 143.012634,176.148285 
z"/>
<path fill="#956F17" opacity="1.000000" stroke="none" 
	d="
M134.147156,65.927277 
	C134.522781,65.884064 134.898392,65.840843 135.919464,65.860153 
	C136.806488,65.896324 137.048065,65.869972 137.289658,65.843613 
	C137.289658,65.843613 137.659134,65.774048 137.868591,66.115845 
	C138.307159,66.963097 138.536270,67.468567 138.765366,67.974030 
	C138.765366,74.501442 138.765366,81.028862 138.765366,88.389832 
	C136.359177,83.539238 134.378571,79.546585 132.276184,74.912262 
	C132.932434,71.844299 135.698746,69.502800 132.468491,66.905579 
	C133.028046,66.579483 133.587601,66.253380 134.147156,65.927277 
z"/>
<path fill="#BC8A1D" opacity="1.000000" stroke="none" 
	d="
M170.053589,108.178787 
	C174.436844,107.510902 178.820084,106.843010 183.820312,106.288979 
	C184.248398,109.310684 184.059494,112.218544 183.870590,115.126396 
	C178.247864,114.416580 172.625153,113.706772 166.832504,112.740776 
	C167.792908,111.049324 168.923248,109.614052 170.053589,108.178787 
z"/>
<path fill="#7F5E1C" opacity="1.000000" stroke="none" 
	d="
M184.053314,115.433167 
	C184.059494,112.218544 184.248398,109.310684 184.171829,106.135727 
	C185.321640,103.022079 186.736923,100.175537 188.293549,97.044716 
	C188.293549,106.044731 188.293549,115.061378 188.293549,124.160263 
	C186.920349,121.310539 185.578201,118.525230 184.053314,115.433167 
z"/>
<path fill="#82632B" opacity="1.000000" stroke="none" 
	d="
M158.068039,112.849937 
	C153.337250,112.959259 148.606476,113.068588 143.356567,112.716072 
	C142.537277,110.881279 142.237137,109.508331 141.936996,108.135391 
	C147.984879,108.109451 154.032776,108.083511 160.543045,108.479050 
	C160.026291,110.216988 159.047165,111.533463 158.068039,112.849937 
z"/>
<path fill="#988C5B" opacity="1.000000" stroke="none" 
	d="
M146.412521,46.361771 
	C146.864059,47.852932 146.860931,49.287132 146.853287,51.075943 
	C142.480331,51.581120 138.111908,51.731686 133.272766,51.395615 
	C132.498184,49.358597 132.194275,47.808208 131.890381,46.257828 
	C136.579544,46.273491 141.268692,46.289154 146.412521,46.361771 
z"/>
<path fill="#EFE2AB" opacity="1.000000" stroke="none" 
	d="
M95.317551,83.262115 
	C95.163170,79.510674 95.257179,75.481544 95.163727,71.195419 
	C97.660812,69.182724 100.345360,67.427010 103.231529,65.539444 
	C104.718292,70.171432 103.669800,73.027702 100.459335,75.754822 
	C98.322792,77.569702 97.162949,80.534370 95.317551,83.262115 
z"/>
<path fill="#946D1C" opacity="1.000000" stroke="none" 
	d="
M130.599503,145.393097 
	C131.077255,143.573273 131.813812,142.103088 132.321304,140.557663 
	C133.129745,138.095871 133.785629,135.584000 134.783981,133.030762 
	C136.018051,134.005569 136.974182,135.042953 138.002289,136.378876 
	C138.072906,136.897552 138.071533,137.117676 137.770096,137.745483 
	C137.240265,138.699814 136.857376,139.232315 136.805481,139.795334 
	C136.459976,143.543335 136.185226,147.297852 135.887482,151.050262 
	C134.176834,149.269836 132.466187,147.489395 130.599503,145.393097 
z"/>
<path fill="#837242" opacity="1.000000" stroke="none" 
	d="
M107.325790,210.301880 
	C107.841286,208.751602 108.644958,207.484528 109.771439,206.088654 
	C112.475494,205.017822 114.856743,204.075775 117.612717,203.532516 
	C118.949333,205.872940 119.911224,207.814560 120.873123,209.756195 
	C116.453400,210.032486 112.033684,210.308777 107.325790,210.301880 
z"/>
<path fill="#7F5E1C" opacity="1.000000" stroke="none" 
	d="
M133.769165,65.788940 
	C133.587601,66.253380 133.028046,66.579483 132.468491,66.905579 
	C135.698746,69.502800 132.932434,71.844299 132.084656,74.628586 
	C128.834320,72.653320 123.514137,71.763596 125.985954,65.101578 
	C128.335999,65.275810 130.863586,65.463203 133.769165,65.788940 
z"/>
<path fill="#7F5E1C" opacity="1.000000" stroke="none" 
	d="
M126.002678,200.357971 
	C127.693977,199.240662 129.385284,198.123352 131.470276,197.242218 
	C132.519760,200.298477 133.175552,203.118530 133.831329,205.938599 
	C131.828369,206.717773 129.825394,207.496933 127.388489,207.941315 
	C126.637253,205.190338 126.319962,202.774155 126.002678,200.357971 
z"/>
<path fill="#78591C" opacity="1.000000" stroke="none" 
	d="
M125.663361,200.432846 
	C126.319962,202.774155 126.637253,205.190338 127.012085,207.972260 
	C125.248199,208.834000 123.426765,209.329971 121.239227,209.791077 
	C119.911224,207.814560 118.949333,205.872940 117.979691,203.543442 
	C120.422638,202.272964 122.873337,201.390335 125.663361,200.432846 
z"/>
<path fill="#946D1C" opacity="1.000000" stroke="none" 
	d="
M134.160583,205.833466 
	C133.175552,203.118530 132.519760,200.298477 131.791290,197.143173 
	C131.718628,196.807938 131.788330,196.815674 132.041489,196.727829 
	C132.502808,196.359192 132.710968,196.078400 132.919128,195.797607 
	C133.722595,194.929382 134.526062,194.061142 135.835464,193.297638 
	C136.907150,195.181549 137.357422,197.009293 138.078033,198.723358 
	C138.583969,199.926773 139.458282,200.975327 140.168091,202.093033 
	C138.275345,203.304810 136.382599,204.516571 134.160583,205.833466 
z"/>
<path fill="#F9E693" opacity="1.000000" stroke="none" 
	d="
M120.283058,104.288101 
	C119.949921,105.305176 119.707108,105.877632 118.961349,107.635841 
	C118.961349,90.552689 118.936523,74.688835 118.990028,58.825241 
	C118.997444,56.625290 119.391632,54.426643 119.931931,52.169250 
	C120.302292,52.771431 120.347496,53.431759 120.240311,54.794891 
	C120.172295,55.746941 120.256676,55.996181 120.341057,56.245426 
	C120.351830,72.111443 120.362610,87.977463 120.283058,104.288101 
z"/>
<path fill="#EFE2AB" opacity="1.000000" stroke="none" 
	d="
M120.978104,109.014938 
	C120.978104,109.014938 120.988373,108.524940 120.992134,108.279922 
	C124.678673,108.034752 128.361450,108.034599 132.519867,108.446365 
	C133.327713,110.228874 133.659912,111.599449 133.992111,112.970032 
	C130.334625,113.046371 126.677139,113.122711 122.233887,113.112747 
	C121.258423,113.152336 121.068726,113.278236 120.879036,113.404129 
	C120.879036,113.404129 120.756355,113.191124 121.048019,112.918259 
	C122.005203,111.758377 122.670723,110.871353 123.336243,109.984329 
	C122.550194,109.661201 121.764153,109.338074 120.978104,109.014938 
z"/>
<path fill="#EFE2AB" opacity="1.000000" stroke="none" 
	d="
M131.485748,46.234692 
	C132.194275,47.808208 132.498184,49.358597 132.816208,51.258308 
	C130.525436,51.654537 128.220551,51.701447 125.204361,51.567154 
	C123.637070,51.242737 122.781067,51.099518 121.922913,50.655022 
	C121.901855,50.153770 121.882950,49.953804 121.864052,49.753834 
	C121.864052,49.753834 121.816635,49.440479 122.043823,49.088898 
	C122.511223,48.204391 122.751442,47.671471 122.991653,47.138550 
	C125.688133,46.829552 128.384613,46.520554 131.485748,46.234692 
z"/>
<path fill="#F9E693" opacity="1.000000" stroke="none" 
	d="
M120.611671,162.442490 
	C120.055305,161.792267 119.054794,160.674179 119.047256,159.549423 
	C118.949707,144.983154 118.980896,130.415863 119.036911,115.849060 
	C119.039818,115.094734 119.559128,114.342384 120.168594,113.305984 
	C120.542473,129.339066 120.585762,145.655304 120.611671,162.442490 
z"/>
<path fill="#A57A1B" opacity="1.000000" stroke="none" 
	d="
M135.990341,151.374512 
	C136.185226,147.297852 136.459976,143.543335 136.805481,139.795334 
	C136.857376,139.232315 137.240265,138.699814 137.753387,138.075256 
	C138.905518,143.806763 139.774292,149.616226 140.508820,155.671997 
	C138.947449,154.511810 137.520325,153.105301 135.990341,151.374512 
z"/>
<path fill="#A57A1B" opacity="1.000000" stroke="none" 
	d="
M140.453308,201.971100 
	C139.458282,200.975327 138.583969,199.926773 138.078033,198.723358 
	C137.357422,197.009293 136.907150,195.181549 136.101028,193.166077 
	C137.038055,191.048615 138.215454,189.167419 139.656799,187.085327 
	C140.055756,188.443268 140.012589,190.043869 140.365524,191.551727 
	C140.968338,194.127106 141.819565,196.644318 142.767059,199.458344 
	C142.224609,200.436874 141.481567,201.143036 140.453308,201.971100 
z"/>
<path fill="#E5D69B" opacity="1.000000" stroke="none" 
	d="
M71.736153,163.290955 
	C72.303452,164.849640 72.913719,166.718018 72.909134,168.584900 
	C72.897789,173.209366 72.605293,177.833145 72.193558,182.738083 
	C69.551247,176.599655 69.684837,170.119827 71.736153,163.290955 
z"/>
<path fill="#B9AA6F" opacity="1.000000" stroke="none" 
	d="
M134.427155,113.091873 
	C133.659912,111.599449 133.327713,110.228874 132.974838,108.501678 
	C135.649216,108.123688 138.344269,108.102310 141.488159,108.108154 
	C142.237137,109.508331 142.537277,110.881279 142.899414,112.600494 
	C140.261658,113.035744 137.561920,113.124733 134.427155,113.091873 
z"/>
<path fill="#946D1C" opacity="1.000000" stroke="none" 
	d="
M158.506622,112.921692 
	C159.047165,111.533463 160.026291,110.216988 161.006287,108.554962 
	C163.725388,108.139099 166.443665,108.068794 169.607758,108.088638 
	C168.923248,109.614052 167.792908,111.049324 166.379852,112.673706 
	C163.713150,112.906364 161.329178,112.949913 158.506622,112.921692 
z"/>
<path fill="#E5D69B" opacity="1.000000" stroke="none" 
	d="
M121.996368,166.004730 
	C125.772591,168.317749 129.548813,170.630768 133.698059,173.172272 
	C130.628220,173.172272 127.256721,173.172272 123.438354,172.686783 
	C122.659782,170.135773 122.328079,168.070251 121.996368,166.004730 
z"/>
<path fill="#E2C371" opacity="1.000000" stroke="none" 
	d="
M78.816879,187.899063 
	C78.557152,190.360031 78.192757,192.465210 77.614265,194.767120 
	C76.888969,194.285873 76.377754,193.607895 75.866386,192.604294 
	C75.842865,189.297653 75.819504,186.316635 76.070679,183.125519 
	C77.134216,184.458023 77.923218,186.000641 78.816879,187.899063 
z"/>
<path fill="#EBD993" opacity="1.000000" stroke="none" 
	d="
M121.998184,166.002365 
	C122.328079,168.070251 122.659782,170.135773 122.991264,172.597595 
	C121.598923,173.028732 120.206802,173.063583 118.403687,173.018585 
	C118.325676,170.887772 118.658676,168.836777 118.995834,166.392899 
	C119.000000,166.000000 118.997887,166.003021 118.997887,166.003021 
	C119.427429,165.990768 119.856979,165.978500 120.875275,165.977676 
	C121.641220,165.993790 121.818405,165.998489 121.995598,166.003189 
	C121.995598,166.003189 121.999992,166.000000 121.998184,166.002365 
z"/>
<path fill="#332E22" opacity="1.000000" stroke="none" 
	d="
M101.709732,170.106934 
	C102.308800,170.823868 102.558403,171.601593 102.900726,172.691864 
	C100.257118,173.334061 97.520798,173.663712 94.784477,173.993378 
	C94.735832,173.563766 94.687187,173.134155 94.638542,172.704544 
	C96.879120,171.858948 99.119705,171.013336 101.709732,170.106934 
z"/>
<path fill="#F9E693" opacity="1.000000" stroke="none" 
	d="
M120.707664,109.170731 
	C121.764153,109.338074 122.550194,109.661201 123.336243,109.984329 
	C122.670723,110.871353 122.005203,111.758377 121.150604,112.850563 
	C120.961517,113.055725 120.764816,113.380241 120.581284,113.428131 
	C120.410904,112.092850 120.424065,110.709686 120.707664,109.170731 
z"/>
<path fill="#F9E693" opacity="1.000000" stroke="none" 
	d="
M122.649002,47.071693 
	C122.751442,47.671471 122.511223,48.204391 122.037735,48.930550 
	C120.968071,48.396568 120.131668,47.669346 119.453407,46.728695 
	C120.509811,46.678455 121.408073,46.841648 122.649002,47.071693 
z"/>
<path fill="#988C5B" opacity="1.000000" stroke="none" 
	d="
M121.925064,50.956303 
	C122.781067,51.099518 123.637070,51.242737 124.772118,51.549744 
	C123.782547,51.858330 122.513924,52.003132 120.865005,52.217651 
	C120.405479,52.112560 120.326241,51.937748 120.486053,51.421875 
	C121.125084,51.039307 121.525078,50.997807 121.925064,50.956303 
z"/>
<path fill="#332E22" opacity="1.000000" stroke="none" 
	d="
M115.653564,172.945496 
	C116.455666,172.949875 116.922974,173.017441 117.729279,173.188385 
	C116.877548,173.399811 115.686813,173.507843 114.240585,173.434753 
	C114.429649,173.171967 114.874214,173.090317 115.653564,172.945496 
z"/>
<path fill="#E5D69B" opacity="1.000000" stroke="none" 
	d="
M121.316284,164.565369 
	C121.030785,164.346085 120.673630,163.822250 120.369972,162.957108 
	C120.697189,163.164139 120.970909,163.712479 121.316284,164.565369 
z"/>
<path fill="#CD9720" opacity="1.000000" stroke="none" 
	d="
M145.894653,196.543060 
	C145.734116,196.267502 145.782104,195.628021 145.961060,194.754700 
	C146.095764,195.073624 146.099472,195.626389 145.894653,196.543060 
z"/>
<path fill="#7F5E1C" opacity="1.000000" stroke="none" 
	d="
M138.826706,67.669098 
	C138.536270,67.468567 138.307159,66.963097 138.046738,66.175903 
	C138.306290,66.384163 138.597168,66.874161 138.826706,67.669098 
z"/>
<path fill="#E5D69B" opacity="1.000000" stroke="none" 
	d="
M121.969780,165.742920 
	C121.818405,165.998489 121.641220,165.993790 121.197548,165.971649 
	C120.982445,165.746674 121.033821,165.539169 121.181671,165.024765 
	C121.500084,164.972794 121.722023,165.227722 121.969780,165.742920 
z"/>
<path fill="#988C5B" opacity="1.000000" stroke="none" 
	d="
M120.504074,56.094547 
	C120.256676,55.996181 120.172295,55.746941 120.219460,55.125511 
	C120.456360,55.150097 120.561729,55.546883 120.504074,56.094547 
z"/>
<path fill="#7F5E1C" opacity="1.000000" stroke="none" 
	d="
M137.112885,65.765221 
	C137.048065,65.869972 136.806488,65.896324 136.200409,65.905716 
	C136.202652,65.821442 136.569382,65.754135 137.112885,65.765221 
z"/>
<path fill="#7F5E1C" opacity="1.000000" stroke="none" 
	d="
M132.668610,195.902069 
	C132.710968,196.078400 132.502808,196.359192 132.056351,196.759583 
	C132.018066,196.588303 132.218079,196.297409 132.668610,195.902069 
z"/>
<path fill="#756C47" opacity="1.000000" stroke="none" 
	d="
M121.019684,113.512497 
	C121.068726,113.278236 121.258423,113.152336 121.780289,113.106293 
	C121.795074,113.331039 121.477699,113.475952 121.019684,113.512497 
z"/>
<path fill="#F9E693" opacity="1.000000" stroke="none" 
	d="
M121.922913,50.655022 
	C121.525078,50.997807 121.125084,51.039307 120.427795,51.139942 
	C119.835686,50.929485 119.540894,50.659901 119.246101,50.390312 
	C119.929123,50.208961 120.612137,50.027611 121.579605,49.800049 
	C121.882950,49.953804 121.901855,50.153770 121.922913,50.655022 
z"/>
<path fill="#EBD993" opacity="1.000000" stroke="none" 
	d="
M119.001617,165.998825 
	C119.003235,165.997650 118.693634,165.821335 118.693634,165.821335 
	C118.693634,165.821335 118.914116,165.833023 118.956001,165.918030 
	C118.997887,166.003021 119.000000,166.000000 119.001617,165.998825 
z"/>
</svg>